
        <svg xmlns="http://www.w3.org/2000/svg" xmlns:xlink="http://www.w3.org/1999/xlink" version="1.1" width="3181.8181818181824" 
        height="1090.909090909091" viewBox="0 0 3181.8181818181824 1090.909090909091">
			<rect fill="#ffc93c" width="3181.8181818181824" height="1090.909090909091"/>
			<g transform="scale(9.090909090909092) translate(10, 10)">
				<defs id="SvgjsDefs1487"></defs><g id="SvgjsG1488" featureKey="symbolContainer" transform="matrix(1,0,0,1,0,0)" fill="#155263"><rect width="110" height="100" rx="8"></rect></g><g id="SvgjsG1489" featureKey="symbolFeature-0" transform="matrix(0.8617292628457209,0,0,0.8617292628457209,11.258617489862633,6.245690433259618)" fill="#ffc93c"><path xmlns="http://www.w3.org/2000/svg" d="M22.027,22.042c-15.844,15.844-15.844,41.623,0,57.467c7.922,7.922,18.328,11.883,28.733,11.883s20.812-3.961,28.733-11.883  c15.844-15.844,15.844-41.623,0-57.467S37.871,6.198,22.027,22.042z M78.08,78.095c-15.064,15.064-39.574,15.064-54.639,0  c-15.064-15.063-15.064-39.575,0-54.639c7.532-7.532,17.426-11.298,27.319-11.298s19.787,3.766,27.319,11.298  C93.144,38.52,93.144,63.031,78.08,78.095z"></path><path xmlns="http://www.w3.org/2000/svg" d="M50.76,15.342c-19.539,0-35.434,15.896-35.434,35.434c0,19.539,15.896,35.435,35.434,35.435s35.434-15.896,35.434-35.435  C86.194,31.237,70.299,15.342,50.76,15.342z M50.76,84.21c-18.436,0-33.434-14.999-33.434-33.435S32.325,17.342,50.76,17.342  S84.194,32.34,84.194,50.775S69.196,84.21,50.76,84.21z"></path><path xmlns="http://www.w3.org/2000/svg" d="M38.176,44.683l0.263,0.062c1.274,0.298,2.319,1.203,2.794,2.419l0.099,0.253c0.834,2.133,2.771,3.579,5.052,3.775  c0.175,0.015,0.349,0.022,0.522,0.022c2.084,0,4.005-1.073,5.099-2.882l0.14-0.23c0.677-1.119,1.861-1.833,3.166-1.91l0.269-0.016  c2.287-0.135,4.261-1.528,5.152-3.639c0.891-2.109,0.515-4.497-0.982-6.229c-0.965-1.118-1.319-2.638-0.946-4.065  c0.579-2.216-0.137-4.524-1.869-6.024c-1.731-1.499-4.118-1.879-6.227-0.991l-0.25,0.104c-1.206,0.51-2.583,0.39-3.685-0.316  l-0.225-0.144c-1.93-1.236-4.346-1.268-6.307-0.086c-1.961,1.184-3.06,3.336-2.868,5.62l0.023,0.266  c0.11,1.304-0.428,2.577-1.439,3.407l-0.208,0.17c-1.771,1.453-2.548,3.741-2.029,5.972C34.239,42.45,35.947,44.161,38.176,44.683z   M37.019,35.794l0.208-0.17c1.52-1.248,2.329-3.162,2.164-5.123l-0.023-0.266c-0.13-1.541,0.583-2.938,1.907-3.737  c0.646-0.39,1.351-0.584,2.054-0.584c0.738,0,1.475,0.214,2.142,0.642l0.225,0.144c1.657,1.062,3.727,1.238,5.537,0.477l0.25-0.104  c1.427-0.601,2.975-0.354,4.143,0.658c1.169,1.013,1.634,2.511,1.243,4.007c-0.539,2.065-0.028,4.263,1.368,5.878  c1.011,1.171,1.255,2.72,0.654,4.145c-0.602,1.425-1.883,2.33-3.427,2.421l-0.269,0.016c-1.962,0.114-3.742,1.188-4.76,2.87  l-0.14,0.23c-0.8,1.324-2.195,2.039-3.74,1.902c-1.541-0.132-2.797-1.07-3.36-2.509l-0.099-0.253  c-0.716-1.831-2.287-3.191-4.201-3.64l-0.263-0.062c-1.506-0.353-2.614-1.462-2.965-2.969  C35.318,38.261,35.822,36.775,37.019,35.794z"></path><path xmlns="http://www.w3.org/2000/svg" d="M44.094,42.43c1.023,0.637,2.178,0.964,3.353,0.964c0.484,0,0.972-0.055,1.456-0.168c3.42-0.795,5.556-4.226,4.76-7.646  c-0.386-1.657-1.393-3.064-2.837-3.963c-1.444-0.898-3.151-1.183-4.809-0.796c-1.657,0.385-3.064,1.393-3.963,2.837  c-0.899,1.444-1.182,3.152-0.797,4.809C41.643,40.124,42.65,41.531,44.094,42.43z M43.751,34.715  c0.617-0.99,1.583-1.682,2.719-1.946c0.332-0.077,0.666-0.115,0.999-0.115c0.806,0,1.599,0.225,2.3,0.661  c0.99,0.617,1.682,1.582,1.946,2.719c0.546,2.346-0.919,4.699-3.265,5.245c-1.136,0.265-2.308,0.07-3.299-0.546  c-0.99-0.617-1.682-1.582-1.946-2.719C42.94,36.877,43.135,35.706,43.751,34.715z"></path><path xmlns="http://www.w3.org/2000/svg" d="M54.41,71.837c0.017-0.016,0.038-0.021,0.054-0.038c0.375-0.406,0.349-1.039-0.057-1.413  c-1.134-1.047-1.469-1.747-1.857-2.559c-0.417-0.87-0.889-1.856-2.305-3.163c-1.416-1.308-2.437-1.699-3.337-2.045  c-0.839-0.322-1.564-0.602-2.698-1.647c-1.133-1.046-1.468-1.746-1.855-2.557c-0.417-0.87-0.888-1.856-2.303-3.162  c-1.415-1.307-2.436-1.698-3.337-2.044c-0.839-0.322-1.563-0.601-2.697-1.646c-1.133-1.046-1.468-1.746-1.855-2.557  c-0.417-0.87-0.888-1.856-2.303-3.162c-0.406-0.375-1.038-0.35-1.413,0.056c-0.006,0.007-0.007,0.015-0.013,0.022  c-0.005,0.006-0.013,0.008-0.019,0.013l-5.316,5.759c-0.041,0.044-0.058,0.099-0.09,0.148c-0.046,0.035-0.099,0.057-0.139,0.1  c-0.375,0.406-0.349,1.039,0.057,1.413c1.133,1.046,1.468,1.746,1.855,2.557c0.417,0.87,0.888,1.856,2.303,3.162  c1.415,1.307,2.436,1.698,3.337,2.044c0.839,0.322,1.563,0.601,2.697,1.646c1.133,1.046,1.468,1.746,1.856,2.557  c0.417,0.87,0.888,1.856,2.303,3.162c1.416,1.308,2.437,1.699,3.337,2.045c0.839,0.323,1.564,0.602,2.698,1.647  c1.134,1.047,1.469,1.747,1.857,2.559c0.417,0.87,0.889,1.856,2.305,3.163c0.192,0.178,0.436,0.266,0.678,0.266  c0.27,0,0.538-0.108,0.735-0.321c0.031-0.034,0.043-0.076,0.069-0.113c0.033-0.027,0.073-0.04,0.103-0.073l5.315-5.758  C54.39,71.879,54.395,71.856,54.41,71.837z M30.357,49.869c0.416,0.87,0.888,1.856,2.303,3.162c1.416,1.307,2.436,1.698,3.337,2.044  c0.839,0.322,1.563,0.601,2.697,1.646c1.133,1.047,1.468,1.746,1.855,2.557c0.417,0.87,0.888,1.856,2.303,3.162  c1.416,1.308,2.437,1.699,3.337,2.045c0.839,0.323,1.564,0.602,2.698,1.647c1.134,1.047,1.469,1.747,1.857,2.559  c0.337,0.704,0.72,1.488,1.601,2.452l-1.43,1.549c-0.599-0.683-0.863-1.232-1.156-1.845c-0.417-0.87-0.889-1.856-2.305-3.163  c-1.416-1.308-2.437-1.699-3.337-2.045c-0.839-0.322-1.564-0.602-2.698-1.647c-1.133-1.046-1.468-1.746-1.856-2.557  c-0.416-0.87-0.888-1.855-2.303-3.161c-1.416-1.308-2.437-1.699-3.337-2.045c-0.839-0.322-1.563-0.601-2.697-1.646  c-1.133-1.046-1.467-1.746-1.855-2.556c-0.337-0.704-0.719-1.487-1.599-2.451l1.43-1.549C29.801,48.709,30.064,49.258,30.357,49.869  z M46.972,73.869c-0.417-0.87-0.889-1.856-2.305-3.163c-1.416-1.308-2.437-1.699-3.337-2.045c-0.839-0.322-1.564-0.602-2.698-1.647  c-1.133-1.047-1.468-1.746-1.855-2.557c-0.417-0.87-0.889-1.856-2.304-3.162c-1.415-1.307-2.436-1.698-3.336-2.045  c-0.839-0.321-1.564-0.6-2.697-1.646c-1.133-1.047-1.468-1.746-1.855-2.557c-0.337-0.704-0.719-1.487-1.599-2.451l1.43-1.549  c0.598,0.682,0.861,1.231,1.154,1.842c0.416,0.87,0.888,1.855,2.303,3.161c1.415,1.307,2.436,1.698,3.336,2.044  c0.839,0.322,1.564,0.601,2.698,1.647c1.133,1.046,1.467,1.746,1.855,2.556c0.416,0.87,0.888,1.856,2.303,3.162  c1.416,1.308,2.437,1.699,3.337,2.045c0.839,0.323,1.564,0.602,2.698,1.647c1.134,1.047,1.469,1.747,1.857,2.559  c0.337,0.704,0.72,1.488,1.601,2.452l-1.43,1.549C47.529,75.031,47.265,74.482,46.972,73.869z"></path><path xmlns="http://www.w3.org/2000/svg" d="M72.588,37.526c-0.854,0.383-1.597,1.03-2.141,1.856c-1.868-0.473-4.012,0.621-5.048,2.693  c-0.155,0.312-0.28,0.632-0.374,0.96c-1.373,0.287-2.632,1.289-3.347,2.719c-0.29,0.579-0.472,1.19-0.542,1.808  c-1.429,0.232-2.76,1.245-3.514,2.752c-0.551,1.102-0.715,2.323-0.464,3.44c0.119,0.527,0.323,1.004,0.601,1.415  c-0.734,0.431-1.554,1.113-2.077,2.17c-0.843,1.703-0.675,3.834,0.501,6.332c2.527,5.369,0.93,9.437,0.506,10.341l-0.053,0.106  c-0.031,0.06-0.05,0.099-0.057,0.114c-0.001,0.001-0.002,0.004-0.003,0.006l-2.429,4.856c-0.247,0.494-0.047,1.095,0.447,1.342  c0.144,0.071,0.296,0.105,0.446,0.105c0.367,0,0.72-0.202,0.896-0.553l2.43-4.858c0.014-0.027,0.035-0.067,0.061-0.12  c0.364-0.67,2.732-4.609,8.737-5.849c2.704-0.559,4.51-1.701,5.367-3.398c0.544-1.077,0.588-2.168,0.482-3.022  c0.463-0.035,0.933-0.156,1.393-0.362c1.044-0.469,1.923-1.334,2.474-2.436c0.739-1.479,0.763-3.13,0.123-4.407  c0.463-0.432,0.853-0.953,1.148-1.545c0.827-1.653,0.738-3.553-0.147-4.863c0.124-0.187,0.236-0.381,0.337-0.581  c0.551-1.102,0.715-2.323,0.464-3.44c-0.189-0.841-0.595-1.553-1.171-2.075c0.349-0.944,0.428-1.945,0.218-2.874  c-0.269-1.19-0.97-2.123-1.976-2.626C74.869,37.028,73.703,37.026,72.588,37.526z M75.9,40.598c0.151,0.668,0.043,1.416-0.302,2.106  l-0.097,0.175c-0.148,0.261-0.17,0.575-0.062,0.854c0.094,0.242,0.278,0.437,0.51,0.545c0.45,0.232,0.771,0.682,0.903,1.269  c0.151,0.668,0.043,1.416-0.302,2.106c-0.15,0.301-0.343,0.577-0.574,0.823c-0.187,0.199-0.285,0.467-0.27,0.739  c0.015,0.273,0.141,0.528,0.349,0.706c0.756,0.646,0.888,2.012,0.305,3.176c-0.291,0.581-0.716,1.051-1.231,1.358  c-0.26,0.154-0.435,0.419-0.478,0.719c-0.042,0.3,0.053,0.602,0.26,0.823c0.653,0.698,0.727,1.953,0.177,3.052  c-0.345,0.69-0.879,1.225-1.504,1.505c-0.555,0.249-1.115,0.261-1.573,0.03c-0.495-0.245-1.093-0.047-1.341,0.444  c-0.197,0.392-0.113,0.85,0.176,1.147c0.156,0.475,0.432,1.626-0.104,2.687c-0.568,1.125-1.909,1.912-3.985,2.341  c-2.267,0.468-4.085,1.276-5.521,2.182l2.874-5.746l4.43-1.475c0.524-0.175,0.807-0.741,0.633-1.266  c-0.174-0.523-0.741-0.803-1.265-0.633l-2.532,0.843l1.621-3.241l4.43-1.476c0.524-0.175,0.808-0.741,0.633-1.266  c-0.174-0.523-0.741-0.804-1.265-0.633l-2.532,0.844l1.739-3.477l4.43-1.476c0.524-0.174,0.807-0.74,0.632-1.265  c-0.174-0.523-0.739-0.809-1.265-0.632l-2.532,0.844l1.846-3.692c0.247-0.494,0.047-1.095-0.447-1.342  c-0.144-0.071-0.296-0.105-0.446-0.105c-0.367,0-0.72,0.202-0.896,0.553l-1.82,3.64l-0.818-2.456  c-0.174-0.523-0.742-0.805-1.265-0.633c-0.524,0.175-0.808,0.741-0.633,1.266l1.451,4.354l-1.739,3.477l-0.819-2.456  c-0.174-0.523-0.739-0.808-1.265-0.632c-0.524,0.174-0.807,0.74-0.632,1.265l1.451,4.353l-1.621,3.242l-0.818-2.456  c-0.174-0.523-0.741-0.807-1.265-0.632c-0.524,0.174-0.808,0.74-0.633,1.265l1.451,4.353l-2.829,5.656  c-0.14-1.642-0.578-3.512-1.528-5.53c-0.898-1.909-1.076-3.45-0.525-4.578c0.677-1.389,2.313-1.775,2.324-1.778  c0.415-0.089,0.729-0.431,0.782-0.852c0.053-0.422-0.165-0.831-0.545-1.021c-0.459-0.229-0.786-0.683-0.919-1.277  c-0.15-0.668-0.043-1.416,0.302-2.105c0.559-1.116,1.624-1.807,2.582-1.683c0.307,0.043,0.607-0.061,0.826-0.273  s0.329-0.514,0.299-0.817c-0.06-0.593,0.062-1.21,0.35-1.786c0.508-1.018,1.457-1.697,2.363-1.697c0.007,0,0.014-0.001,0.024,0  c0.502,0,0.928-0.373,0.992-0.873c0.049-0.38,0.164-0.753,0.342-1.108c0.667-1.332,2.075-2.034,3.072-1.538l0.114,0.068  c0.249,0.153,0.558,0.176,0.835,0.087c0.278-0.088,0.51-0.308,0.625-0.576c0.022-0.052,0.044-0.104,0.07-0.156  c0.345-0.689,0.879-1.224,1.504-1.504c0.555-0.249,1.114-0.262,1.574-0.03C75.439,39.551,75.766,40.004,75.9,40.598z"></path></g><g id="SvgjsG1490" featureKey="nameFeature-0" transform="matrix(0.9648784310007242,0,0,0.9648784310007242,126.52643912068504,22.772288263320412)" fill="#155263"><path d="M3.6 37.76 l0 -23.28 c0 -1.4 1.08 -2.48 2.48 -2.48 l10 0 c3.52 0 6.28 1.04 8.08 2.8 c1.48 1.52 2.32 3.6 2.32 6.04 l0 0.08 c0 4.48 -2.6 7.2 -6.36 8.36 l5.36 6.76 c0.48 0.6 0.8 1.12 0.8 1.88 c0 1.36 -1.16 2.28 -2.36 2.28 c-1.12 0 -1.84 -0.52 -2.4 -1.28 l-6.8 -8.68 l-6.2 0 l0 7.52 c0 1.36 -1.08 2.44 -2.44 2.44 c-1.4 0 -2.48 -1.08 -2.48 -2.44 z M8.52 25.880000000000003 l7.2 0 c3.52 0 5.76 -1.84 5.76 -4.68 l0 -0.08 c0 -3 -2.16 -4.64 -5.8 -4.64 l-7.16 0 l0 9.4 z M35.6 27.96 l10.84 0 c-0.32 -3.12 -2.16 -5.56 -5.36 -5.56 c-2.96 0 -5.04 2.28 -5.48 5.56 z M49.24 37.68 c-1.92 1.72 -4.32 2.8 -7.6 2.8 c-6.12 0 -10.84 -4.44 -10.84 -10.96 l0 -0.08 c0 -6.04 4.28 -11 10.32 -11 c6.72 0 10.04 5.52 10.04 10.4 c0 1.36 -1.04 2.32 -2.28 2.32 l-13.24 0 c0.52 3.44 2.96 5.36 6.08 5.36 c2.04 0 3.64 -0.72 5 -1.84 c0.36 -0.28 0.68 -0.44 1.24 -0.44 c1.08 0 1.92 0.84 1.92 1.96 c0 0.6 -0.28 1.12 -0.64 1.48 z M63.36 40.4 c-2.68 0 -5.6 -0.84 -8.04 -2.52 c-0.52 -0.28 -0.92 -0.88 -0.92 -1.68 c0 -1.08 0.84 -1.96 1.96 -1.96 c0.4 0 0.76 0.12 1.04 0.28 c2.04 1.36 4.16 2.04 6.08 2.04 c2.08 0 3.28 -0.88 3.28 -2.28 l0 -0.08 c0 -1.64 -2.24 -2.2 -4.72 -2.96 c-3.12 -0.88 -6.6 -2.16 -6.6 -6.2 l0 -0.08 c0 -4 3.32 -6.44 7.52 -6.44 c2.24 0 4.6 0.64 6.64 1.72 c0.68 0.36 1.16 1 1.16 1.84 c0 1.12 -0.88 1.96 -2 1.96 c-0.4 0 -0.64 -0.08 -0.96 -0.24 c-1.72 -0.88 -3.48 -1.44 -4.96 -1.44 c-1.88 0 -2.96 0.88 -2.96 2.08 l0 0.08 c0 1.56 2.28 2.2 4.76 3 c3.08 0.96 6.56 2.36 6.56 6.16 l0 0.08 c0 4.44 -3.44 6.64 -7.84 6.64 z M80 46.519999999999996 c-1.36 0 -2.36 -0.2 -3.36 -0.6 c-0.72 -0.24 -1.52 -0.84 -1.52 -2 c0 -1.2 0.92 -2 1.96 -2 c0.4 0 0.64 0.08 0.88 0.16 c0.56 0.16 1 0.28 1.68 0.28 c1.44 0 2.2 -0.6 3 -2.24 l0.16 -0.44 l-7.84 -17.52 c-0.16 -0.36 -0.28 -0.84 -0.28 -1.16 c0 -1.36 1.04 -2.36 2.4 -2.36 c1.24 0 1.92 0.72 2.36 1.84 l5.68 14.04 l5.28 -14.04 c0.4 -1 1.08 -1.84 2.32 -1.84 c1.28 0 2.32 1 2.32 2.28 c0 0.4 -0.12 0.92 -0.2 1.16 l-7.72 18.52 c-1.8 4.32 -3.72 5.92 -7.12 5.92 z M113.20000000000002 40.48 c-8.16 0 -14.24 -6.36 -14.24 -14.4 l0 -0.08 c0 -7.96 5.96 -14.48 14.44 -14.48 c4.32 0 7.16 1.28 9.6 3.16 c0.52 0.4 0.96 1.08 0.96 1.96 c0 1.36 -1.08 2.4 -2.44 2.4 c-0.68 0 -1.16 -0.24 -1.48 -0.48 c-1.92 -1.56 -4 -2.52 -6.68 -2.52 c-5.32 0 -9.24 4.4 -9.24 9.88 l0 0.08 c0 5.48 3.88 9.92 9.24 9.92 c2.96 0 4.96 -0.96 7 -2.68 c0.36 -0.32 0.88 -0.56 1.48 -0.56 c1.24 0 2.32 1.04 2.32 2.28 c0 0.76 -0.36 1.36 -0.8 1.76 c-2.64 2.32 -5.64 3.76 -10.16 3.76 z M129.44 37.8 l0 -24.8 c0 -1.32 1.04 -2.4 2.4 -2.4 s2.44 1.08 2.44 2.4 l0 24.8 c0 1.36 -1.08 2.4 -2.44 2.4 c-1.32 0 -2.4 -1.04 -2.4 -2.4 z M150.64000000000001 40.48 c-6.44 0 -11.2 -4.92 -11.2 -10.92 l0 -0.08 c0 -6.04 4.8 -11.04 11.28 -11.04 s11.24 4.92 11.24 10.96 l0 0.08 c0 6 -4.8 11 -11.32 11 z M150.72 36.24 c3.92 0 6.4 -3.04 6.4 -6.68 l0 -0.08 c0 -3.72 -2.68 -6.8 -6.48 -6.8 c-3.88 0 -6.36 3.04 -6.36 6.72 l0 0.08 c0 3.68 2.68 6.76 6.44 6.76 z M166.88 37.8 l0 -16.72 c0 -1.36 1.04 -2.44 2.4 -2.44 s2.44 1.08 2.44 2.44 l0 1.04 c1.36 -1.96 3.32 -3.68 6.6 -3.68 c4.76 0 7.52 3.2 7.52 8.08 l0 11.28 c0 1.36 -1.04 2.4 -2.4 2.4 s-2.44 -1.04 -2.44 -2.4 l0 -9.8 c0 -3.28 -1.64 -5.16 -4.52 -5.16 c-2.8 0 -4.76 1.96 -4.76 5.24 l0 9.72 c0 1.36 -1.08 2.4 -2.44 2.4 c-1.32 0 -2.4 -1.04 -2.4 -2.4 z M195.32000000000002 27.96 l10.84 0 c-0.32 -3.12 -2.16 -5.56 -5.36 -5.56 c-2.96 0 -5.04 2.28 -5.48 5.56 z M208.96 37.68 c-1.92 1.72 -4.32 2.8 -7.6 2.8 c-6.12 0 -10.84 -4.44 -10.84 -10.96 l0 -0.08 c0 -6.04 4.28 -11 10.32 -11 c6.72 0 10.04 5.52 10.04 10.4 c0 1.36 -1.04 2.32 -2.28 2.32 l-13.24 0 c0.52 3.44 2.96 5.36 6.08 5.36 c2.04 0 3.64 -0.72 5 -1.84 c0.36 -0.28 0.68 -0.44 1.24 -0.44 c1.08 0 1.92 0.84 1.92 1.96 c0 0.6 -0.28 1.12 -0.64 1.48 z"></path></g>
			</g>
		</svg>
	